HIERARCHY
ROOT Hips
{
	OFFSET 0.000000 100.481300 0.000000
	CHANNELS 6 Xposition Yposition Zposition Xrotation Yrotation Zrotation 
	JOINT Spine
	{
		OFFSET -0.279200 12.230698 -2.892100
		CHANNELS 3 Xrotation Yrotation Zrotation
		JOINT Spine1
		{
			OFFSET -0.232667 10.192268 -1.242267
			CHANNELS 3 Xrotation Yrotation Zrotation
			JOINT Spine1_split
			{
				OFFSET -0.232667 10.192268 -1.242267
				CHANNELS 3 Xrotation Yrotation Zrotation
				JOINT Spine2
				{
					OFFSET -0.232667 10.192268 -1.242267
					CHANNELS 3 Xrotation Yrotation Zrotation
					JOINT Neck
					{
						OFFSET -0.418800 17.814194 8.416900
						CHANNELS 3 Xrotation Yrotation Zrotation
						JOINT Head
						{
							OFFSET 0.000000 7.031097 3.806800
							CHANNELS 3 Xrotation Yrotation Zrotation
							JOINT HeadTop_End
							{
								OFFSET 0.000000 24.646606 12.978600
								CHANNELS 3 Xrotation Yrotation Zrotation
								End Site
								{
									OFFSET 0.000000 0.000000 0.000000
								}
							}
						}
					}
					JOINT LeftShoulder
					{
						OFFSET 8.476499 7.247704 -3.868750
						CHANNELS 3 Xrotation Yrotation Zrotation
						JOINT LeftShoulder_split
						{
							OFFSET 8.476499 7.247704 -3.868750
							CHANNELS 3 Xrotation Yrotation Zrotation
							JOINT LeftArm
							{
								OFFSET 9.308998 -2.777710 0.208600
								CHANNELS 3 Xrotation Yrotation Zrotation
								JOINT LeftForeArm
								{
									OFFSET 29.972298 0.000000 0.000000
									CHANNELS 3 Xrotation Yrotation Zrotation
									JOINT LeftHand
									{
										OFFSET 26.026505 0.000000 0.000000
										CHANNELS 3 Xrotation Yrotation Zrotation
										JOINT LeftHandThumb1
										{
											OFFSET 12.240501 -7.147949 9.207150
											CHANNELS 3 Xrotation Yrotation Zrotation
											JOINT LeftHandThumb2
											{
												OFFSET 4.138618 -2.389435 2.389433
												CHANNELS 3 Xrotation Yrotation Zrotation
												JOINT LeftHandThumb3
												{
													OFFSET 2.726913 -1.574387 1.574386
													CHANNELS 3 Xrotation Yrotation Zrotation
													JOINT LeftHandThumb4
													{
														OFFSET 3.941010 -2.275345 2.275342
														CHANNELS 3 Xrotation Yrotation Zrotation
														End Site
														{
															OFFSET 0.000000 0.000000 0.000000
														}
													}
												}
											}
										}
										JOINT LeftHandIndex1
										{
											OFFSET 24.424698 -1.985611 5.953459
											CHANNELS 3 Xrotation Yrotation Zrotation
											JOINT LeftHandIndex2
											{
												OFFSET 6.426697 0.000000 0.000000
												CHANNELS 3 Xrotation Yrotation Zrotation
												JOINT LeftHandIndex3
												{
													OFFSET 5.337898 0.000000 0.000000
													CHANNELS 3 Xrotation Yrotation Zrotation
													JOINT LeftHandIndex4
													{
														OFFSET 4.409401 0.000000 0.000000
														CHANNELS 3 Xrotation Yrotation Zrotation
														End Site
														{
															OFFSET 0.000000 0.000000 0.000000
														}
													}
												}
											}
										}
										JOINT LeftHandMiddle1
										{
											OFFSET 23.810104 0.000000 0.000000
											CHANNELS 3 Xrotation Yrotation Zrotation
											JOINT LeftHandMiddle2
											{
												OFFSET 7.176498 0.000000 0.000000
												CHANNELS 3 Xrotation Yrotation Zrotation
												JOINT LeftHandMiddle3
												{
													OFFSET 6.774902 0.000000 0.000000
													CHANNELS 3 Xrotation Yrotation Zrotation
													JOINT LeftHandMiddle4
													{
														OFFSET 5.403328 0.000000 0.000000
														CHANNELS 3 Xrotation Yrotation Zrotation
														End Site
														{
															OFFSET 0.000000 0.000000 0.000000
														}
													}
												}
											}
										}
										JOINT LeftHandRing1
										{
											OFFSET 22.908401 -0.839279 -6.020567
											CHANNELS 3 Xrotation Yrotation Zrotation
											JOINT LeftHandRing2
											{
												OFFSET 6.337502 0.000000 0.000000
												CHANNELS 3 Xrotation Yrotation Zrotation
												JOINT LeftHandRing3
												{
													OFFSET 5.779297 0.000000 0.000000
													CHANNELS 3 Xrotation Yrotation Zrotation
													JOINT LeftHandRing4
													{
														OFFSET 4.965698 0.000000 0.000000
														CHANNELS 3 Xrotation Yrotation Zrotation
														End Site
														{
															OFFSET 0.000000 0.000000 0.000000
														}
													}
												}
											}
										}
										JOINT LeftHandPinky1
										{
											OFFSET 20.037003 -1.530319 -10.950146
											CHANNELS 3 Xrotation Yrotation Zrotation
											JOINT LeftHandPinky2
											{
												OFFSET 5.254700 0.000000 0.000000
												CHANNELS 3 Xrotation Yrotation Zrotation
												JOINT LeftHandPinky3
												{
													OFFSET 4.810204 0.000000 0.000000
													CHANNELS 3 Xrotation Yrotation Zrotation
													JOINT LeftHandPinky4
													{
														OFFSET 3.647202 0.000000 0.000000
														CHANNELS 3 Xrotation Yrotation Zrotation
														End Site
														{
															OFFSET 0.000000 0.000000 0.000000
														}
													}
												}
											}
										}
									}
								}
							}
						}
					}
					JOINT RightShoulder
					{
						OFFSET -7.570500 7.247704 -3.868750
						CHANNELS 3 Xrotation Yrotation Zrotation
						JOINT RightShoulder_split
						{
							OFFSET -7.570500 7.247704 -3.868750
							CHANNELS 3 Xrotation Yrotation Zrotation
							JOINT RightArm
							{
								OFFSET -9.308998 -2.777710 0.208500
								CHANNELS 3 Xrotation Yrotation Zrotation
								JOINT RightForeArm
								{
									OFFSET -29.972300 0.000000 0.000000
									CHANNELS 3 Xrotation Yrotation Zrotation
									JOINT RightHand
									{
										OFFSET -26.026505 0.000000 0.000000
										CHANNELS 3 Xrotation Yrotation Zrotation
										JOINT RightHandThumb1
										{
											OFFSET -12.240601 -7.148026 9.207092
											CHANNELS 3 Xrotation Yrotation Zrotation
											JOINT RightHandThumb2
											{
												OFFSET -4.138618 -2.389435 2.389433
												CHANNELS 3 Xrotation Yrotation Zrotation
												JOINT RightHandThumb3
												{
													OFFSET -2.726974 -1.574417 1.574421
													CHANNELS 3 Xrotation Yrotation Zrotation
													JOINT RightHandThumb4
													{
														OFFSET -3.941010 -2.275345 2.275343
														CHANNELS 3 Xrotation Yrotation Zrotation
														End Site
														{
															OFFSET 0.000000 0.000000 0.000000
														}
													}
												}
											}
										}
										JOINT RightHandIndex1
										{
											OFFSET -24.424698 -1.985657 5.953444
											CHANNELS 3 Xrotation Yrotation Zrotation
											JOINT RightHandIndex2
											{
												OFFSET -6.426697 0.000000 0.000000
												CHANNELS 3 Xrotation Yrotation Zrotation
												JOINT RightHandIndex3
												{
													OFFSET -5.337898 0.000000 0.000000
													CHANNELS 3 Xrotation Yrotation Zrotation
													JOINT RightHandIndex4
													{
														OFFSET -4.409401 0.000000 0.000000
														CHANNELS 3 Xrotation Yrotation Zrotation
														End Site
														{
															OFFSET 0.000000 0.000000 0.000000
														}
													}
												}
											}
										}
										JOINT RightHandMiddle1
										{
											OFFSET -23.810097 0.000000 0.000000
											CHANNELS 3 Xrotation Yrotation Zrotation
											JOINT RightHandMiddle2
											{
												OFFSET -7.176498 0.000000 0.000000
												CHANNELS 3 Xrotation Yrotation Zrotation
												JOINT RightHandMiddle3
												{
													OFFSET -6.774902 0.000000 0.000000
													CHANNELS 3 Xrotation Yrotation Zrotation
													JOINT RightHandMiddle4
													{
														OFFSET -5.403328 0.000000 0.000000
														CHANNELS 3 Xrotation Yrotation Zrotation
														End Site
														{
															OFFSET 0.000000 0.000000 0.000000
														}
													}
												}
											}
										}
										JOINT RightHandRing1
										{
											OFFSET -22.908302 -0.839325 -6.020576
											CHANNELS 3 Xrotation Yrotation Zrotation
											JOINT RightHandRing2
											{
												OFFSET -6.337502 0.000000 0.000000
												CHANNELS 3 Xrotation Yrotation Zrotation
												JOINT RightHandRing3
												{
													OFFSET -5.779297 0.000000 0.000000
													CHANNELS 3 Xrotation Yrotation Zrotation
													JOINT RightHandRing4
													{
														OFFSET -4.965698 0.000000 0.000000
														CHANNELS 3 Xrotation Yrotation Zrotation
														End Site
														{
															OFFSET 0.000000 0.000000 0.000000
														}
													}
												}
											}
										}
										JOINT RightHandPinky1
										{
											OFFSET -20.037003 -1.530334 -10.950259
											CHANNELS 3 Xrotation Yrotation Zrotation
											JOINT RightHandPinky2
											{
												OFFSET -5.254700 0.000000 0.000000
												CHANNELS 3 Xrotation Yrotation Zrotation
												JOINT RightHandPinky3
												{
													OFFSET -4.810204 0.000000 0.000000
													CHANNELS 3 Xrotation Yrotation Zrotation
													JOINT RightHandPinky4
													{
														OFFSET -3.647202 0.000000 0.000000
														CHANNELS 3 Xrotation Yrotation Zrotation
														End Site
														{
															OFFSET 0.000000 0.000000 0.000000
														}
													}
												}
											}
										}
									}
								}
							}
						}
					}
				}
			}
		}
	}
	JOINT LeftUpLeg
	{
		OFFSET 15.427100 -6.655098 0.678600
		CHANNELS 3 Xrotation Yrotation Zrotation
		JOINT LeftLeg
		{
			OFFSET 4.081073 -39.591068 13.024000
			CHANNELS 3 Xrotation Yrotation Zrotation
			JOINT LeftFoot
			{
				OFFSET -4.081074 -37.707932 -15.979700
				CHANNELS 3 Xrotation Yrotation Zrotation
				JOINT LeftToeBase
				{
					OFFSET 5.346399 -15.068900 20.645000
					CHANNELS 3 Xrotation Yrotation Zrotation
					JOINT LeftToe_End
					{
						OFFSET 2.754700 0.931300 11.300900
						CHANNELS 3 Xrotation Yrotation Zrotation
						End Site
						{
							OFFSET 0.000000 0.000000 0.000000
						}
					}
				}
			}
		}
	}
	JOINT RightUpLeg
	{
		OFFSET -15.569500 -6.655098 0.678600
		CHANNELS 3 Xrotation Yrotation Zrotation
		JOINT RightLeg
		{
			OFFSET -4.081825 -39.591045 13.023800
			CHANNELS 3 Xrotation Yrotation Zrotation
			JOINT RightFoot
			{
				OFFSET 4.081824 -37.707954 -15.979600
				CHANNELS 3 Xrotation Yrotation Zrotation
				JOINT RightToeBase
				{
					OFFSET -5.346400 -15.068900 20.645000
					CHANNELS 3 Xrotation Yrotation Zrotation
					JOINT RightToe_End
					{
						OFFSET -2.754700 0.931300 11.300900
						CHANNELS 3 Xrotation Yrotation Zrotation
						End Site
						{
							OFFSET 0.000000 0.000000 0.000000
						}
					}
				}
			}
		}
	}
}
MOTION
Frames: 4
Frame Time: 0.016667
-0.194024 86.554420 1.054984 1.614789 155.581027 2.964581 5.548650 0.068684 -1.299936 11.095622 0.009768 -0.734627 0.000000 0.000000 0.000000 11.095630 0.009766 -0.734626 -10.509367 -1.525009 -3.378805 -17.396265 -3.946702 2.467847 0.000000 0.000003 0.000000 9.458508 -6.444352 -14.996469 0.000000 0.000000 0.000000 -9.678075 10.609545 -35.777200 0.014663 -55.260960 0.178991 23.478999 -9.549550 10.015914 7.350835 -14.484224 -10.934845 -1.067061 0.182836 1.946101 0.000005 0.000004 -0.000004 -0.000000 -0.000000 -0.000006 5.776121 -9.584544 -10.641320 0.033760 0.666545 -10.636456 -0.000003 -0.000003 0.000005 -0.000000 -0.000000 0.000001 1.641874 7.127191 -4.239646 -0.187956 -0.789333 -15.969025 0.000001 0.000009 -0.000007 0.000001 0.000000 0.000002 1.677295 11.039952 -8.046064 -0.183063 -2.876871 -23.912158 -0.000001 0.000001 -0.000002 0.000001 0.000000 -0.000002 0.734581 28.047554 -16.218773 -0.849535 -6.142170 -29.148246 -0.000000 0.000000 -0.000000 0.000002 0.000000 -0.000000 -3.413057 0.044914 -0.357075 0.000000 0.000000 0.000000 -8.509086 -11.385610 60.673595 -0.093539 56.136819 -0.118054 33.241370 -12.824970 -17.733568 -4.978399 12.391667 9.407263 -1.210144 -0.220454 -2.120998 -0.000003 0.000004 -0.000005 -0.000000 0.000000 -0.000005 10.258609 13.576550 6.067475 0.012526 -0.647881 4.076586 -0.000001 -0.000001 -0.000010 -0.000002 0.000002 0.000002 -1.738475 -1.670997 3.393787 -0.252709 0.798108 21.448264 0.000000 0.000003 0.000007 0.000000 -0.000001 -0.000001 -0.824274 -13.700970 18.348830 -0.242212 2.213611 16.221170 0.000000 -0.000000 0.000001 0.000000 -0.000000 0.000001 -4.380751 -23.900587 30.060308 -0.233916 5.125290 12.870314 0.000000 -0.000000 0.000000 0.000000 -0.000000 0.000000 -24.403047 -7.296525 11.800000 27.040690 -1.215350 -1.332319 -1.640480 -2.109419 -16.074451 0.002990 -0.026214 0.062611 0.000000 -0.000002 -0.000000 -16.364795 -12.565916 -21.983988 36.999609 1.567142 2.052946 -18.305455 -9.281193 11.373313 -0.012206 -0.109708 0.262088 0.000000 0.000004 -0.000000 
-0.255912 86.277161 1.020998 1.087750 154.648324 2.997455 5.541123 0.017674 -1.323821 11.081757 -0.077127 -0.835932 0.000000 0.000000 0.000000 11.081763 -0.077127 -0.835933 -10.962305 -1.919715 -3.250075 -17.063821 -4.417236 3.165608 0.000000 0.000002 0.000000 9.412421 -6.453415 -14.019419 0.000000 0.000000 0.000000 -8.662127 10.477075 -35.400481 0.010204 -54.481929 0.179130 23.395508 -10.993422 10.180211 7.349509 -14.482219 -10.935198 -1.067024 0.182830 1.946019 0.000005 0.000004 -0.000006 -0.000001 0.000001 -0.000002 5.776063 -9.584135 -10.640212 0.033753 0.666542 -10.636309 -0.000003 -0.000002 -0.000002 -0.000000 0.000000 0.000001 1.641802 7.127182 -4.239314 -0.187950 -0.789328 -15.968856 -0.000001 0.000007 -0.000007 0.000001 0.000001 0.000001 1.677148 11.039872 -8.045497 -0.183066 -2.876812 -23.911722 -0.000001 0.000001 0.000000 0.000002 0.000000 -0.000001 0.734500 28.047045 -16.218544 -0.849490 -6.142062 -29.147716 0.000001 -0.000000 -0.000000 0.000001 -0.000000 0.000000 -3.299625 0.252108 -0.421618 0.000000 0.000000 0.000000 -8.140544 -9.974491 59.691830 -0.093542 55.025397 -0.121970 32.733060 -11.033745 -18.050310 -4.980133 12.389503 9.406448 -1.210081 -0.220422 -2.120946 -0.000001 0.000006 -0.000004 0.000001 0.000001 -0.000000 10.258443 13.576042 6.066711 0.012523 -0.647875 4.076577 0.000000 -0.000001 -0.000009 0.000002 -0.000001 0.000004 -1.738414 -1.671048 3.393417 -0.252707 0.798101 21.447899 -0.000000 0.000004 0.000009 -0.000001 0.000001 0.000000 -0.824409 -13.700833 18.347095 -0.242220 2.213571 16.220916 -0.000000 0.000000 0.000003 -0.000000 0.000000 0.000001 -4.381154 -23.900174 30.057494 -0.233936 5.125181 12.870117 -0.000000 -0.000000 0.000002 -0.000000 -0.000000 -0.000000 -25.177942 -6.155275 12.523502 27.933916 -1.259889 -1.379139 -2.201478 -2.553231 -15.991348 0.346324 0.059116 -0.008212 -0.000000 -0.000000 -0.000000 -17.263908 -11.615246 -21.677294 37.582795 1.595449 2.084982 -18.345383 -9.171714 11.343940 -0.012203 -0.109713 0.262086 -0.000000 -0.000001 -0.000000 
-0.336687 85.863625 0.974741 0.296210 153.278625 3.080399 5.531541 -0.038162 -1.342960 11.063665 -0.166386 -0.951348 0.000000 0.000000 0.000000 11.063665 -0.166378 -0.951352 -11.367811 -2.308015 -3.134615 -16.612921 -4.878088 3.873081 0.000000 -0.000001 -0.000000 9.287382 -6.480149 -13.016976 0.000000 0.000000 0.000000 -7.148109 10.286345 -34.868136 0.002874 -53.374383 0.177149 23.239196 -12.347006 10.353348 7.347637 -14.479390 -10.935726 -1.066970 0.182815 1.945968 0.000004 0.000006 -0.000007 0.000001 -0.000001 -0.000002 5.775941 -9.583593 -10.639062 0.033767 0.666520 -10.636087 -0.000003 -0.000003 -0.000000 0.000000 -0.000000 -0.000001 1.641729 7.127114 -4.238967 -0.187939 -0.789360 -15.968593 0.000002 0.000007 -0.000009 0.000001 -0.000000 0.000000 1.676995 11.039725 -8.044908 -0.183035 -2.876729 -23.911084 -0.000002 0.000001 -0.000003 -0.000001 0.000000 -0.000000 0.734398 28.046305 -16.218182 -0.849433 -6.141886 -29.146938 0.000004 0.000000 0.000000 0.000001 -0.000000 0.000001 -3.131421 0.557778 -0.519414 0.000000 0.000000 0.000000 -7.620060 -7.972459 58.297290 -0.094711 53.382822 -0.125817 32.021467 -8.492659 -18.497064 -4.982273 12.386630 9.405929 -1.210027 -0.220413 -2.120885 -0.000002 0.000004 -0.000002 0.000000 -0.000000 0.000002 10.258142 13.575364 6.065977 0.012522 -0.647869 4.076552 0.000001 -0.000005 -0.000011 -0.000000 0.000000 -0.000004 -1.738353 -1.671124 3.393035 -0.252692 0.798079 21.447373 0.000001 0.000005 0.000011 -0.000001 -0.000000 0.000003 -0.824538 -13.700618 18.345284 -0.242213 2.213514 16.220514 0.000000 -0.000000 -0.000001 0.000001 -0.000000 0.000001 -4.381554 -23.899573 30.054519 -0.233948 5.125050 12.869835 -0.000000 -0.000000 0.000001 -0.000000 -0.000000 0.000001 -26.200471 -4.898382 13.495069 29.196760 -1.332382 -1.451040 -3.020740 -2.763662 -15.969366 0.690425 0.188220 -0.109181 0.000000 0.000001 0.000000 -18.604563 -10.307276 -21.269142 38.407868 1.635977 2.130078 -18.376735 -8.908329 11.314260 -0.012206 -0.109707 0.262088 0.000000 0.000002 -0.000000 
-0.485772 85.084297 0.879551 -1.214420 150.716512 3.332558 5.515500 -0.106069 -1.345412 11.032430 -0.262071 -1.106972 0.000000 0.000000 0.000000 11.032436 -0.262066 -1.106974 -11.644142 -2.672793 -3.043680 -15.844140 -5.313089 4.602629 0.000000 -0.000000 -0.000000 8.948000 -6.559113 -11.945461 0.000000 0.000000 0.000000 -4.288841 9.928073 -33.890900 -0.012118 -51.337027 0.169270 22.892535 -13.455976 10.544931 7.344169 -14.474183 -10.936684 -1.066927 0.182806 1.945941 0.000003 0.000005 -0.000004 -0.000001 0.000001 0.000002 5.775574 -9.582678 -10.637816 0.033747 0.666493 -10.635713 -0.000003 -0.000003 -0.000000 -0.000000 0.000000 -0.000002 1.641604 7.126971 -4.238584 -0.187943 -0.789313 -15.968120 -0.000000 0.000007 -0.000005 -0.000000 -0.000000 0.000001 1.676793 11.039371 -8.044202 -0.183010 -2.876579 -23.909972 -0.000003 0.000001 -0.000001 0.000001 0.000000 0.000001 0.734192 28.044945 -16.217560 -0.849271 -6.141607 -29.145527 -0.000001 -0.000001 0.000000 -0.000002 0.000000 0.000000 -2.814923 1.132010 -0.706651 0.000000 0.000000 0.000000 -6.670050 -4.296625 55.732667 -0.098525 50.295956 -0.129473 30.742934 -3.827465 -19.312418 -4.985608 12.381767 9.406298 -1.209969 -0.220393 -2.120805 -0.000001 0.000007 -0.000002 0.000001 0.000001 -0.000000 10.257416 13.574219 6.065325 0.012519 -0.647841 4.076506 0.000002 -0.000001 -0.000008 0.000000 -0.000003 -0.000001 -1.738274 -1.671264 3.392604 -0.252683 0.798060 21.446451 0.000001 0.000004 0.000007 0.000001 -0.000000 0.000002 -0.824673 -13.700137 18.343207 -0.242203 2.213417 16.219821 0.000001 -0.000000 -0.000001 0.000001 -0.000000 -0.000001 -4.381922 -23.898364 30.051207 -0.233919 5.124802 12.869270 0.000000 0.000000 -0.000000 0.000000 0.000000 0.000001 -27.965974 -3.280133 15.179571 31.512959 -1.482887 -1.593607 -4.553659 -2.422089 -16.038035 0.894217 0.434147 -0.186424 -0.000000 0.000000 0.000000 -21.159747 -7.970522 -20.477814 39.912965 1.710828 2.211947 -18.391490 -8.335943 11.282270 -0.012199 -0.109731 0.262090 0.000000 0.000002 -0.000000 
